# xmcd
#
# Track frame offsets:
#	150
#	11946
#	24594
#	36417
#	47868
#	60966
#	73600
#	86471
#	97708
#	108855
#	120694
#	131165
#	142085
#	153269
#	165680
#	177070
#	185308
#	198199
#	210490
#	221365
#	233045
#	244615
#	257898
#	268669
#	281726
#	291329
#	304335
#	314914
#	326196
#
# Disc length: 4508 seconds
#
# Revision: 0
# Processed by: cddbd v1.4PL0 Copyright (c) Steve Scherf et al.
# Submitted via: EasyCDDAExtractor 4.6.9.1
#
DISCID=af119a1d
DTITLE=Kitty Wells - Queen of Country Music - Disc 2
DYEAR=1993
DGENRE=Country
TTITLE0=I Gave My Wedding Dress Away
TTITLE1=Cheatin's A Sin
TTITLE2=You're Not Easy To Forget
TTITLE3=Satisfied, So Satisfied
TTITLE4=One By One
TTITLE5=Release Me
TTITLE6=After Dark
TTITLE7=(Don't Hang Around) He's Married To Me
TTITLE8=Thou Shalt Not Steal
TTITLE9=Lonely Side Of Town
TTITLE10=I Hope My Divorce Is Never Granted
TTITLE11=I'm In Love With You
TTITLE12=Make Believe
TTITLE13=You And Me
TTITLE14=As Long As I Live
TTITLE15=No One But You
TTITLE16=Makin' Believe
TTITLE17=I'd Rather Stay Home
TTITLE18=I Was Wrong
TTITLE19=There's Poison In Your Heart
TTITLE20=Goodby Mr. Brown
TTITLE21=Mother Hold Me Tight
TTITLE22=Searching (For Someone Else)
TTITLE23=How Far Is Heaven
TTITLE24=Dust On The Bible
TTITLE25=Beside You
TTITLE26=I'm Counting On You
TTITLE27=They Can't Take Your Love
TTITLE28=I'm Tired Of Pretending
EXTD=
EXTT0=
EXTT1=
EXTT2=
EXTT3=
EXTT4=
EXTT5=
EXTT6=
EXTT7=
EXTT8=
EXTT9=
EXTT10=
EXTT11=
EXTT12=
EXTT13=
EXTT14=
EXTT15=
EXTT16=
EXTT17=
EXTT18=
EXTT19=
EXTT20=
EXTT21=
EXTT22=
EXTT23=
EXTT24=
EXTT25=
EXTT26=
EXTT27=
EXTT28=
PLAYORDER=
